<svg id="Capa_1" data-name="Capa 1" xmlns="http://www.w3.org/2000/svg" viewBox="0 0 758.93 304.28"><defs><style>.cls-1{fill:#1d1d1b;stroke:#1d1d1b;stroke-miterlimit:10;stroke-width:3.63px;}</style></defs><polygon class="cls-1" points="171.79 85.94 49.5 130.76 63.08 134.22 34.58 149.86 50.82 154 30.26 166.84 67.18 170.21 47.02 183.16 114.04 188.16 6.93 258.54 39.35 255.94 34.49 265.55 56 271.02 33.8 296.71 155.61 230.07 136.06 231.12 209.05 185.82 183.55 186.56 201.19 169.35 145.91 178.19 164.94 164.95 113.67 162.76 122.68 154.2 98.98 154.2 201.43 111.56 179.92 106.09 190.78 82.34 171.79 85.94"/><polygon class="cls-1" points="378.65 71.88 262.06 110.11 223.98 121.22 242.74 122.88 223.75 135.13 244.09 138.09 219.46 152.01 248.35 153.33 242.93 213.72 234.01 246.4 246.23 238.66 230.84 294.41 287.13 212.91 271.47 208.93 292.69 193.44 332.6 177.07 309.47 176.41 342.88 167.28 318.2 167.38 326.82 158.73 283.56 161.38 357.19 124.67 323.55 124.25 363.68 107.04 347.49 104.73 361.28 92.77 355.36 87.65 378.65 71.88"/><polygon class="cls-1" points="516.8 72.08 481.3 72.69 491.16 62.34 392.06 94.98 422.25 102.66 370.77 128.13 385.11 131.78 365.78 147.75 386.15 152.93 352.63 174.14 369.24 178.36 343.61 209.61 374.22 206.14 351.58 224.49 376.24 220.32 364.29 232.54 447.3 209.47 427.97 225.44 527.76 209.05 483.59 202.63 554.9 174.98 498.8 177.58 504.5 170.99 473.49 179.17 484.67 169.96 402.62 189.26 418.54 177.24 399.66 175.65 447.35 152.43 421.65 155.54 450.98 141.31 425.1 141.95 497.06 95.98 473.74 96.07 516.8 72.08"/><polygon class="cls-1" points="656.93 29.79 699.96 5.94 547.69 48.6 566.78 58.82 540.97 75.01 563.61 80.77 538.45 100.16 568.62 102.13 527.34 128.59 574.37 126.9 549.69 157.58 598.09 144.18 586.31 162.08 602.94 159.88 589.63 180.6 645.28 159.68 644.26 168.78 717.58 145.38 687.64 145.15 748.18 119.57 689.5 123.65 699.52 115.35 658.37 129.64 674.55 109 612.9 124.28 657.03 98.69 615.31 105.55 631.8 89.96 615.36 85.78 640.93 61.07 611.56 62.84 685.39 34.52 649.53 36.74 656.93 29.79"/></svg>